<svg xmlns="http://www.w3.org/2000/svg" width="1200" height="700" viewBox="0 0 1200 700">
  <defs>
    <linearGradient id="bg" x1="0" y1="0" x2="1" y2="1">
      <stop offset="0%" stop-color="#0E0622"/>
      <stop offset="100%" stop-color="#080014"/>
    </linearGradient>
    <radialGradient id="glow1" cx="30%" cy="40%">
      <stop offset="0%" stop-color="#00E8C6" stop-opacity="0.06"/>
      <stop offset="100%" stop-color="#00E8C6" stop-opacity="0"/>
    </radialGradient>
    <radialGradient id="glow2" cx="70%" cy="60%">
      <stop offset="0%" stop-color="#38BDF8" stop-opacity="0.04"/>
      <stop offset="100%" stop-color="#38BDF8" stop-opacity="0"/>
    </radialGradient>
  </defs>
  <rect width="1200" height="700" fill="url(#bg)"/>
  <rect width="1200" height="700" fill="url(#glow1)"/>
  <rect width="1200" height="700" fill="url(#glow2)"/>
  
      <!-- Mock UI chrome -->
      <rect x="60" y="56" width="1080" height="588" rx="12" fill="#0E0622" stroke="#00E8C615" stroke-width="1"/>
      <!-- Titlebar -->
      <rect x="60" y="56" width="1080" height="42" rx="12" fill="rgba(255,255,255,0.02)"/>
      <circle cx="108" cy="77" r="4" fill="rgba(255,255,255,0.08)"/>
      <circle cx="132" cy="77" r="4" fill="rgba(255,255,255,0.08)"/>
      <circle cx="156" cy="77" r="4" fill="rgba(255,255,255,0.08)"/>
      <!-- Sidebar -->
      <rect x="60" y="98.00000000000001" width="216" height="546" fill="rgba(255,255,255,0.015)"/>
      <rect x="84.00000000000001" y="133" width="156" height="8" rx="4" fill="rgba(255,255,255,0.04)"/>
      <rect x="84.00000000000001" y="168" width="120" height="8" rx="4" fill="rgba(255,255,255,0.03)"/>
      <rect x="84.00000000000001" y="203" width="144" height="8" rx="4" fill="rgba(255,255,255,0.03)"/>
      <rect x="84.00000000000001" y="238.00000000000003" width="108" height="8" rx="4" fill="rgba(255,255,255,0.03)"/>
      <!-- Main content area -->
      <rect x="312" y="126" width="384" height="84" rx="8" fill="#00E8C608" stroke="#00E8C615" stroke-width="0.5"/>
      <rect x="744" y="126" width="360" height="84" rx="8" fill="#38BDF808" stroke="#38BDF815" stroke-width="0.5"/>
      <!-- Chart area -->
      <rect x="312" y="244.99999999999997" width="792" height="210" rx="8" fill="rgba(255,255,255,0.01)" stroke="rgba(255,255,255,0.04)" stroke-width="0.5"/>
      <!-- Chart bars -->
      <rect x="348" y="384.11934661727093" width="42.00000000000001" height="49.88065338272908" rx="3" fill="#00E8C625"/><rect x="410" y="372.0675433854279" width="42.00000000000001" height="61.9324566145721" rx="3" fill="#38BDF815"/><rect x="472" y="368.9211282360668" width="42.00000000000001" height="65.07887176393318" rx="3" fill="#00E8C615"/><rect x="534" y="367.1410906251166" width="42.00000000000001" height="66.85890937488338" rx="3" fill="#38BDF825"/><rect x="596" y="395.53692677627316" width="42.00000000000001" height="38.46307322372686" rx="3" fill="#00E8C615"/><rect x="658" y="426.112663190268" width="42.00000000000001" height="7.88733680973203" rx="3" fill="#38BDF815"/><rect x="720" y="428.86069875113054" width="42.00000000000001" height="5.139301248869437" rx="3" fill="#00E8C625"/><rect x="782" y="430.1467080664131" width="42.00000000000001" height="3.853291933586876" rx="3" fill="#38BDF815"/><rect x="844" y="386.20925275368944" width="42.00000000000001" height="47.79074724631056" rx="3" fill="#00E8C615"/><rect x="906" y="370.77685725702145" width="42.00000000000001" height="63.22314274297855" rx="3" fill="#38BDF825"/><rect x="968" y="370.80856919917755" width="42.00000000000001" height="63.19143080082247" rx="3" fill="#00E8C615"/><rect x="1030" y="373.52925685700603" width="42.00000000000001" height="60.47074314299397" rx="3" fill="#38BDF815"/>
      <!-- Table rows -->
      <rect x="312" y="489.99999999999994" width="792" height="28" rx="4" fill="rgba(255,255,255,0.01)"/>
        <rect x="336.00000000000006" y="495.99999999999994" width="144" height="6" rx="3" fill="rgba(255,255,255,0.04)"/>
        <rect x="540" y="495.99999999999994" width="96" height="6" rx="3" fill="rgba(255,255,255,0.03)"/>
        <rect x="696" y="495.99999999999994" width="180" height="6" rx="3" fill="#00E8C610"/><rect x="312" y="528.5" width="792" height="28" rx="4" fill="rgba(255,255,255,0.015)"/>
        <rect x="336.00000000000006" y="534.5" width="144" height="6" rx="3" fill="rgba(255,255,255,0.04)"/>
        <rect x="540" y="534.5" width="96" height="6" rx="3" fill="rgba(255,255,255,0.03)"/>
        <rect x="696" y="534.5" width="180" height="6" rx="3" fill="#00E8C610"/><rect x="312" y="567" width="792" height="28" rx="4" fill="rgba(255,255,255,0.02)"/>
        <rect x="336.00000000000006" y="573" width="144" height="6" rx="3" fill="rgba(255,255,255,0.04)"/>
        <rect x="540" y="573" width="96" height="6" rx="3" fill="rgba(255,255,255,0.03)"/>
        <rect x="696" y="573" width="180" height="6" rx="3" fill="#00E8C610"/><rect x="312" y="605.5" width="792" height="28" rx="4" fill="rgba(255,255,255,0.025)"/>
        <rect x="336.00000000000006" y="611.5" width="144" height="6" rx="3" fill="rgba(255,255,255,0.04)"/>
        <rect x="540" y="611.5" width="96" height="6" rx="3" fill="rgba(255,255,255,0.03)"/>
        <rect x="696" y="611.5" width="180" height="6" rx="3" fill="#00E8C610"/>
    
  <text x="600" y="350" text-anchor="middle" dominant-baseline="central" font-family="Plus Jakarta Sans,sans-serif" font-size="16" font-weight="600" fill="rgba(255,255,255,0.08)">Dashboard Analytics</text>
</svg>